<svg xmlns="http://www.w3.org/2000/svg" version="1.1" xmlns:xlink="http://www.w3.org/1999/xlink" xmlns:svgjs="http://svgjs.dev/svgjs" width="1000" height="118" viewBox="0 0 1000 118"><g transform="matrix(1,0,0,1,-0.6060362038168137,-0.1469654446653621)"><svg viewBox="0 0 396 47" data-background-color="#ffffff" preserveAspectRatio="xMidYMid meet" height="118" width="1000" xmlns="http://www.w3.org/2000/svg" xmlns:xlink="http://www.w3.org/1999/xlink"><g id="tight-bounds" transform="matrix(1,0,0,1,0.23999033671145753,0.05853980993515506)"><svg viewBox="0 0 395.52 46.88292310617274" height="46.88292310617274" width="395.52"><g><svg viewBox="0 0 595.1793715902918 70.54952647817522" height="46.88292310617274" width="395.52"><g><rect width="2.1897940118390085" height="51.30410572399862" x="191.73713252128266" y="9.622710377088303" fill="#1e55b3" opacity="1" stroke-width="0" stroke="transparent" fill-opacity="1" class="rect-o-0" data-fill-palette-color="primary" rx="1%" id="o-0" data-palette-color="#1e55b3"></rect></g><g transform="matrix(1,0,0,1,199.65937159029184,9.750332530630587)"><svg viewBox="0 0 395.52 51.04886141691405" height="51.04886141691405" width="395.52"><g id="textblocktransform"><svg viewBox="0 0 395.52 51.04886141691405" height="51.04886141691405" width="395.52" id="textblock"><g><svg viewBox="0 0 395.52 24.28220173660253" height="24.28220173660253" width="395.52"><g transform="matrix(1,0,0,1,0,0)"><svg width="395.52" viewBox="2.8299999237060547 -38.650001525878906 631.8899536132812 39.19000244140625" height="24.28220173660253" data-palette-color="#1e55b3"><g class="undefined-text-0" data-fill-palette-color="primary" id="text-0"><path d="M16.92 0L16.92-31.37 2.83-31.37 2.83-38.16 38.75-38.16 38.75-31.37 24.66-31.37 24.66 0 16.92 0ZM46.97 0L46.97-38.16 54.71-38.16 54.71-28.2 78.44-28.2 78.44-38.16 86.2-38.16 86.2 0 78.44 0 78.44-21.58 54.71-21.58 54.71 0 46.97 0ZM97.04 0L97.04-38.16 129.54-38.16 129.54-31.37 104.78-31.37 104.78-23.75 126.7-23.75 126.7-17.38 104.78-17.38 104.78-6.76 130.05-6.76 130.05 0 97.04 0Z" fill="#1e55b3" data-fill-palette-color="primary"></path><path d="M133.13-5.08L137.25-11.35Q139.33-10.18 141.46-9.24 143.6-8.3 145.89-7.65 148.19-7.01 150.72-6.67 153.24-6.32 156.1-6.32L156.1-6.32Q159.54-6.32 161.96-6.77 164.38-7.23 165.9-8.02 167.43-8.81 168.12-9.91 168.82-11.01 168.82-12.3L168.82-12.3Q168.82-14.38 167.09-15.59 165.35-16.8 161.74-16.8L161.74-16.8Q160.15-16.8 158.39-16.59 156.64-16.38 154.84-16.14 153.05-15.89 151.3-15.69 149.56-15.48 148.02-15.48L148.02-15.48Q145.46-15.48 143.1-16.14 140.74-16.8 138.92-18.12 137.11-19.43 136.03-21.41 134.96-23.39 134.96-26.03L134.96-26.03Q134.96-27.59 135.38-29.13 135.81-30.66 136.75-32.07 137.69-33.47 139.18-34.68 140.67-35.89 142.78-36.77 144.89-37.65 147.66-38.15 150.44-38.65 153.98-38.65L153.98-38.65Q156.54-38.65 159.13-38.37 161.72-38.09 164.17-37.57 166.62-37.06 168.89-36.34 171.16-35.62 173.12-34.74L173.12-34.74 169.72-28.49Q168.11-29.2 166.26-29.8 164.4-30.4 162.37-30.83 160.35-31.27 158.19-31.53 156.03-31.79 153.78-31.79L153.78-31.79Q150.58-31.79 148.52-31.32 146.46-30.86 145.24-30.14 144.01-29.42 143.54-28.53 143.06-27.64 143.06-26.76L143.06-26.76Q143.06-25.05 144.6-23.96 146.14-22.88 149.29-22.88L149.29-22.88Q150.56-22.88 152.21-23.06 153.85-23.24 155.67-23.46 157.49-23.68 159.38-23.86 161.28-24.05 163.06-24.05L163.06-24.05Q166.43-24.05 169.03-23.29 171.63-22.53 173.38-21.13 175.14-19.73 176.05-17.74 176.95-15.75 176.95-13.28L176.95-13.28Q176.95-9.99 175.42-7.41 173.9-4.83 171.08-3.06 168.26-1.29 164.28-0.38 160.3 0.54 155.42 0.54L155.42 0.54Q152.19 0.54 149.12 0.13 146.04-0.27 143.22-1.01 140.4-1.76 137.85-2.8 135.3-3.83 133.13-5.08L133.13-5.08ZM180.56 0L198.48-38.16 206.68-38.16 225.14 0 217.01 0 213.96-6.42 191.67-6.42 188.71 0 180.56 0ZM194.62-12.79L210.91-12.79 202.65-30.13 194.62-12.79ZM231.07 0L231.07-38.16 265.2-38.16 265.2-31.37 238.81-31.37 238.81-21.39 261.22-21.39 261.22-15.01 238.81-15.01 238.81 0 231.07 0ZM272.67 0L272.67-38.16 305.16-38.16 305.16-31.37 280.41-31.37 280.41-23.75 302.33-23.75 302.33-17.38 280.41-17.38 280.41-6.76 305.68-6.76 305.68 0 272.67 0Z" fill="#ff585f" data-fill-palette-color="secondary"></path><path d="M323.01 0L306.17-38.16 314.62-38.16 324.97-13.53 327.36-7.57 329.24-13.53 333.05-22.51 326.19-38.16 334.15-38.16 336.95-30.71 339.57-38.16 347.53-38.16 340.67-22.51 344.55-13.33 346.89-7.57 348.7-13.43 359.1-38.16 367.55-38.16 350.7 0 343.03 0 339.64-7.57 336.88-14.92 334.12-7.57 330.68 0 323.01 0ZM368.54 0L386.46-38.16 394.67-38.16 413.12 0 404.99 0 401.94-6.42 379.65-6.42 376.7 0 368.54 0ZM382.61-12.79L398.89-12.79 390.64-30.13 382.61-12.79ZM430.55 0L430.55-31.37 416.47-31.37 416.47-38.16 452.38-38.16 452.38-31.37 438.29-31.37 438.29 0 430.55 0ZM458.31-19.31L458.31-19.31Q458.31-23.39 459.85-26.92 461.39-30.44 464.3-33.04 467.22-35.64 471.43-37.13 475.64-38.62 480.97-38.62L480.97-38.62Q485.63-38.62 489.52-37.68 493.42-36.74 496.76-34.81L496.76-34.81 493.2-28.96Q492.2-29.61 490.89-30.13 489.58-30.64 488.11-30.99 486.63-31.35 485.05-31.54 483.48-31.74 481.94-31.74L481.94-31.74Q478.23-31.74 475.33-30.82 472.42-29.91 470.43-28.26 468.44-26.61 467.4-24.33 466.37-22.05 466.37-19.31L466.37-19.31Q466.37-16.48 467.44-14.11 468.51-11.74 470.55-10.02 472.59-8.3 475.53-7.34 478.48-6.37 482.19-6.37L482.19-6.37Q483.87-6.37 485.53-6.62 487.19-6.86 488.74-7.29 490.29-7.71 491.73-8.31 493.17-8.91 494.42-9.62L494.42-9.62 497.98-3.76Q494.86-1.76 490.76-0.62 486.65 0.51 482.04 0.51L482.04 0.51Q476.16 0.51 471.71-1.01 467.27-2.54 464.29-5.21 461.31-7.89 459.81-11.51 458.31-15.14 458.31-19.31ZM506.48 0L506.48-38.16 514.21-38.16 514.21-28.2 537.95-28.2 537.95-38.16 545.71-38.16 545.71 0 537.95 0 537.95-21.58 514.21-21.58 514.21 0 506.48 0ZM556.55 0L556.55-38.16 589.04-38.16 589.04-31.37 564.29-31.37 564.29-23.75 586.21-23.75 586.21-17.38 564.29-17.38 564.29-6.76 589.55-6.76 589.55 0 556.55 0ZM598.15 0L598.15-38.16 617.55-38.16Q621.95-38.16 625.17-37.24 628.39-36.33 630.52-34.59 632.64-32.86 633.68-30.37 634.72-27.88 634.72-24.73L634.72-24.73Q634.72-22.61 634.21-20.69 633.69-18.77 632.63-17.16 631.57-15.55 629.96-14.29 628.35-13.04 626.17-12.21L626.17-12.21 634.47 0 625 0 617.82-10.84 617.6-10.84 605.88-10.86 605.88 0 598.15 0ZM605.88-17.55L617.75-17.55Q619.95-17.55 621.6-18.07 623.24-18.58 624.35-19.51 625.46-20.43 626.01-21.77 626.56-23.1 626.56-24.73L626.56-24.73Q626.56-27.93 624.37-29.68 622.17-31.42 617.75-31.42L617.75-31.42 605.88-31.42 605.88-17.55Z" fill="#1e55b3" data-fill-palette-color="primary"></path></g></svg></g></svg></g><g transform="matrix(1,0,0,1,0,30.01464679377271)"><svg viewBox="0 0 232.209792 21.03421462314134" height="21.03421462314134" width="232.209792"><g transform="matrix(1,0,0,1,0,0)"><svg width="232.209792" viewBox="1.7000000476837158 -38.099998474121094 585.0399780273438 53" height="21.03421462314134" data-palette-color="#ff585f"><path d="M30.4 0.1L30.4 0.1Q27.6 0.1 26.18-1.73 24.75-3.55 24.25-8.55L24.25-8.55Q23.95-11.15 23.65-15.3L23.65-15.3Q20.15-14.25 16.6-13.1L16.6-13.1 14.9-8.4Q14.4-7.05 14.2-6.48 14-5.9 13.48-4.75 12.95-3.6 12.58-3.08 12.2-2.55 11.53-1.75 10.85-0.95 10.15-0.6L10.15-0.6Q8.35 0.3 6.3 0.3 4.25 0.3 2.98-1.18 1.7-2.65 1.7-4.8L1.7-4.8Q1.7-5.4 1.8-6.05L1.8-6.05Q2.45-10.85 11.65-14.8L11.65-14.8Q14.25-21.45 20.3-37.2L20.3-37.2Q21.9-38.1 24.35-38.1L24.35-38.1Q24.9-38.1 25.4-38.1 25.9-38.1 26.63-38.1 27.35-38.1 28.45-37.8L28.45-37.8Q28.5-35.45 30.75-8.65L30.75-8.65Q30.95-6.4 31.3-5.73 31.65-5.05 32.5-5.05L32.5-5.05Q33.9-5.05 36.23-6.95 38.55-8.85 40.4-11.7L40.4-11.7 41.8-8.3 40.6-6.7Q35.35 0.1 30.4 0.1ZM23.3-19L22.45-29.4 18.1-17.25Q21.6-18.45 23.3-19L23.3-19ZM9.9-10.45Q5.25-8.1 5.25-5.85L5.25-5.85Q5.25-4.25 6.45-4.25L6.45-4.25Q7.35-4.25 7.9-5.55L7.9-5.55Q8.55-6.95 9.9-10.45L9.9-10.45ZM58.2-15.3L58.2-15.3Q62.15-12.4 62.15-8.45 62.15-4.5 59.05-2.1 55.95 0.3 51.25 0.3L51.25 0.3Q48.2 0.3 46.17-1.23 44.15-2.75 44.15-5 44.15-7.25 45.65-8.58 47.15-9.9 49.4-10.2L49.4-10.2Q48.35-8.7 48.35-7.33 48.35-5.95 49.3-5.1L49.3-5.1Q50.25-4.25 51.7-4.25 53.15-4.25 54.1-5.33 55.05-6.4 55.05-7.8L55.05-7.8Q55.05-10.1 52.9-11.9L52.9-11.9Q51.6-12.95 50.1-13.88 48.6-14.8 48.5-14.85L48.5-14.85Q48.3-15 48.1-15.1L48.1-15.1Q47.2-14.05 45.5-12.23 43.8-10.4 42.8-9.3L42.8-9.3Q40-6.25 39.65-4.2L39.65-4.2Q39.55-3.8 39.55-2.68 39.55-1.55 40.22-0.35 40.9 0.85 41.85 1.45 42.8 2.05 43.72 2.43 44.65 2.8 45.32 2.95 46 3.1 46 3.15L46 3.15Q46 3.5 44.9 3.95L44.9 3.95Q42.85 4.7 40.62 4.7 38.4 4.7 36.3 3.1L36.3 3.1Q33.45 0.9 33.45-2.75L33.45-2.75Q33.45-5 34.6-7.2L34.6-7.2Q36.65-11.1 44.2-17.9L44.2-17.9Q42.35-19.75 42.35-21.85 42.35-23.95 43.92-25.4 45.5-26.85 47.65-26.85L47.65-26.85Q49.6-26.85 51.05-25.3L51.05-25.3Q52-24.25 52-22.65 52-21.05 50.95-19.05L50.95-19.05Q56.3-16.65 58.2-15.3ZM47.35-20.95L47.35-20.95Q48.55-22.2 48.55-22.75L48.55-22.75Q48.55-24 47.45-24.1L47.45-24.1Q46.2-24.1 46.2-22.7L46.2-22.7Q46.2-21.85 47.35-20.95ZM83.95-15.3L83.95-15.3Q87.9-12.4 87.9-8.45 87.9-4.5 84.8-2.1 81.7 0.3 77 0.3L77 0.3Q73.95 0.3 71.92-1.23 69.9-2.75 69.9-5 69.9-7.25 71.4-8.58 72.9-9.9 75.15-10.2L75.15-10.2Q74.1-8.7 74.1-7.33 74.1-5.95 75.05-5.1L75.05-5.1Q76-4.25 77.45-4.25 78.9-4.25 79.85-5.33 80.8-6.4 80.8-7.8L80.8-7.8Q80.8-10.1 78.65-11.9L78.65-11.9Q77.35-12.95 75.85-13.88 74.35-14.8 74.25-14.85L74.25-14.85Q74.05-15 73.85-15.1L73.85-15.1Q72.95-14.05 71.25-12.23 69.55-10.4 68.55-9.3L68.55-9.3Q65.75-6.25 65.4-4.2L65.4-4.2Q65.3-3.8 65.3-2.68 65.3-1.55 65.97-0.35 66.65 0.85 67.6 1.45 68.55 2.05 69.47 2.43 70.4 2.8 71.07 2.95 71.75 3.1 71.75 3.15L71.75 3.15Q71.75 3.5 70.65 3.95L70.65 3.95Q68.6 4.7 66.37 4.7 64.15 4.7 62.05 3.1L62.05 3.1Q59.2 0.9 59.2-2.75L59.2-2.75Q59.2-5 60.35-7.2L60.35-7.2Q62.4-11.1 69.95-17.9L69.95-17.9Q68.1-19.75 68.1-21.85 68.1-23.95 69.67-25.4 71.25-26.85 73.4-26.85L73.4-26.85Q75.35-26.85 76.8-25.3L76.8-25.3Q77.75-24.25 77.75-22.65 77.75-21.05 76.7-19.05L76.7-19.05Q82.05-16.65 83.95-15.3ZM73.1-20.95L73.1-20.95Q74.3-22.2 74.3-22.75L74.3-22.75Q74.3-24 73.2-24.1L73.2-24.1Q71.95-24.1 71.95-22.7L71.95-22.7Q71.95-21.85 73.1-20.95ZM111.14-23.55L111.14-23.55Q109.09-7.35 109.09-6.3L109.09-6.3Q109.09-4.3 110.54-4.3L110.54-4.3Q111.84-4.3 113.37-6.08 114.89-7.85 115.79-11.4L115.79-11.4Q117.44-9.6 117.79-8.6L117.79-8.6Q116.64-3.75 114.14-1.75 111.64 0.25 108.99 0.25L108.99 0.25Q104.64 0.25 103.14-3.1L103.14-3.1Q100.54 0.25 96.19 0.25L96.19 0.25Q92.59 0.25 90.64-1.55 88.69-3.35 88.69-6.25L88.69-6.25Q88.69-6.95 88.94-8.7L88.94-8.7Q90.09-18 90.69-23.5L90.69-23.5Q92.24-24.05 93.54-24.05 94.84-24.05 95.49-23.95 96.14-23.85 96.74-23.2 97.34-22.55 97.34-21.35L97.34-21.35 95.69-8.6Q95.59-8 95.59-7.5L95.59-7.5Q95.59-4.55 98.29-4.55L98.29-4.55Q100.79-4.55 102.44-7L102.44-7Q102.44-7.55 102.54-8.75L102.54-8.75 104.19-22.05Q104.54-22.9 105.69-23.48 106.84-24.05 108.57-24.05 110.29-24.05 111.14-23.55ZM128.94-17.5L128.94-17.5Q128.94-19.7 126.92-19.7 124.89-19.7 123.69-17.1L123.69-17.1Q129.09-12.85 129.09-7.55L129.09-7.55Q129.09-3.7 126.94-1.7 124.79 0.3 121.54 0.3 118.29 0.3 116.79-1.73 115.29-3.75 115.29-6.85L115.29-6.85Q115.29-7.8 115.34-8.25L115.34-8.25 117.09-23.5Q118.89-24.05 120.74-24.05L120.74-24.05Q123.79-24.05 123.79-21.8L123.79-21.8 123.79-21.7Q125.79-24.05 128.89-24.05L128.89-24.05Q131.14-24.05 132.39-23.03 133.64-22 133.64-20.3 133.64-18.6 132.37-17.53 131.09-16.45 129.04-16.45L129.04-16.45Q128.94-16.45 128.84-16.45L128.84-16.45Q128.94-17 128.94-17.5ZM125.84-7.8Q125.84-10.7 122.84-13.6L122.84-13.6Q121.94-6.4 121.94-6.35L121.94-6.35Q121.94-4.25 123.64-4.25L123.64-4.25Q125.84-4.25 125.84-7.8L125.84-7.8ZM144.09-11.2Q147.19-11.85 148.71-13.7 150.24-15.55 150.24-17.28 150.24-19 149.31-19.63 148.39-20.25 147.29-20.25L147.29-20.25Q144.94-20.25 143.16-17.63 141.39-15 141.39-11.38 141.39-7.75 143.11-5.98 144.84-4.2 147.39-4.2L147.39-4.2Q151.14-4.2 154.59-6.8 158.04-9.4 160.19-13.6L160.19-13.6Q161.29-12.55 162.19-11L162.19-11Q160.54-7.25 156.34-3.65L156.34-3.65Q154.24-1.9 151.36-0.8 148.49 0.3 145.44 0.3L145.44 0.3Q140.44 0.3 137.54-2.75L137.54-2.75Q134.44-6.05 134.44-11.2 134.44-16.35 138.31-20.2 142.19-24.05 147.59-24.05L147.59-24.05Q151.44-24.05 153.84-22.38 156.24-20.7 156.29-17.85L156.29-17.85Q156.29-14 153.21-11.6 150.14-9.2 144.79-8.25L144.79-8.25 144.09-11.2ZM177.19-36.05Q177.54-36.9 178.76-37.48 179.99-38.05 181.71-38.05 183.44-38.05 184.29-37.55L184.29-37.55Q183.79-33.65 182.69-25.3L182.69-25.3Q180.39-7.85 180.39-6.08 180.39-4.3 181.89-4.3L181.89-4.3Q183.19-4.3 184.59-5.93 185.99-7.55 187.14-11.25L187.14-11.25Q188.54-9.9 189.09-8.3L189.09-8.3Q187.29-2.35 183.44-0.6L183.44-0.6Q181.69 0.25 180.14 0.25L180.14 0.25Q175.69 0.25 174.19-2.95L174.19-2.95Q171.59 0.3 167.54 0.3 163.49 0.3 160.71-2.45 157.94-5.2 157.94-9.7L157.94-9.7Q157.94-16.25 161.79-20.15 165.64-24.05 171.54-24.05L171.54-24.05Q171.69-24.05 171.84-24.05L171.84-24.05Q173.89-24.05 175.69-23.45L175.69-23.45 177.19-36.05ZM172.29-20.15L172.29-20.15Q169.09-20.15 167.21-17.73 165.34-15.3 164.99-10.5L164.99-10.5Q164.94-10.05 164.94-9.65L164.94-9.65Q164.94-7.2 166.11-5.75 167.29-4.3 169.14-4.3L169.14-4.3Q172.29-4.3 173.89-8.75L173.89-8.75 175.19-19.5Q173.54-20.15 172.29-20.15ZM205.78-11.2Q208.88-11.85 210.41-13.7 211.93-15.55 211.93-17.28 211.93-19 211.01-19.63 210.08-20.25 208.98-20.25L208.98-20.25Q206.63-20.25 204.86-17.63 203.08-15 203.08-11.38 203.08-7.75 204.81-5.98 206.53-4.2 209.08-4.2L209.08-4.2Q212.83-4.2 216.28-6.8 219.73-9.4 221.88-13.6L221.88-13.6Q222.98-12.55 223.88-11L223.88-11Q222.23-7.25 218.03-3.65L218.03-3.65Q215.93-1.9 213.06-0.8 210.18 0.3 207.13 0.3L207.13 0.3Q202.13 0.3 199.23-2.75L199.23-2.75Q196.13-6.05 196.13-11.2 196.13-16.35 200.01-20.2 203.88-24.05 209.28-24.05L209.28-24.05Q213.13-24.05 215.53-22.38 217.93-20.7 217.98-17.85L217.98-17.85Q217.98-14 214.91-11.6 211.83-9.2 206.48-8.25L206.48-8.25 205.78-11.2ZM238.6-8.95Q237.03-4.9 234.1-2.33 231.18 0.25 227.43 0.25 223.68 0.25 221.8-2.23 219.93-4.7 219.93-7.9L219.93-7.9Q219.93-8.55 219.98-9.2L219.98-9.2 221.68-23.45Q223.28-24.05 225.08-24.05L225.08-24.05Q228.38-24.05 228.38-21.6L228.38-21.6Q228.38-21.5 227.55-14.93 226.73-8.35 226.73-7.3L226.73-7.3Q226.73-4.45 229.48-4.45L229.48-4.45Q231.83-4.45 233.43-7.1L233.43-7.1Q236.23-11.9 236.38-17.95L236.38-17.95 235.93-17.95Q233.83-17.95 232.73-18.9L232.73-18.9Q231.48-20 231.48-21.55 231.48-23.1 232.43-24.05L232.43-24.05Q233.58-25.05 235.18-25.05L235.18-25.05Q238.98-25.05 239.93-21.1L239.93-21.1Q241.43-21.3 242.08-21.5L242.08-21.5 242.08-18.65 240.23-18.35 240.23-17.5Q240.18-13 238.6-8.95ZM234.33-21.55L234.33-21.55Q234.33-20.7 235.78-20.7L235.78-20.7Q235.93-20.7 236.08-20.7L236.08-20.7Q235.73-22.05 235.03-22.05 234.33-22.05 234.33-21.55ZM251.78-11.2Q254.88-11.85 256.4-13.7 257.93-15.55 257.93-17.28 257.93-19 257-19.63 256.08-20.25 254.98-20.25L254.98-20.25Q252.63-20.25 250.85-17.63 249.08-15 249.08-11.38 249.08-7.75 250.8-5.98 252.53-4.2 255.08-4.2L255.08-4.2Q258.83-4.2 262.28-6.8 265.73-9.4 267.88-13.6L267.88-13.6Q268.98-12.55 269.88-11L269.88-11Q268.23-7.25 264.03-3.65L264.03-3.65Q261.93-1.9 259.05-0.8 256.18 0.3 253.13 0.3L253.13 0.3Q248.13 0.3 245.23-2.75L245.23-2.75Q242.13-6.05 242.13-11.2 242.13-16.35 246-20.2 249.88-24.05 255.28-24.05L255.28-24.05Q259.13-24.05 261.53-22.38 263.93-20.7 263.98-17.85L263.98-17.85Q263.98-14 260.9-11.6 257.83-9.2 252.48-8.25L252.48-8.25 251.78-11.2ZM280.52-17.5L280.52-17.5Q280.52-19.7 278.5-19.7 276.47-19.7 275.27-17.1L275.27-17.1Q280.67-12.85 280.67-7.55L280.67-7.55Q280.67-3.7 278.52-1.7 276.37 0.3 273.12 0.3 269.87 0.3 268.37-1.73 266.87-3.75 266.87-6.85L266.87-6.85Q266.87-7.8 266.92-8.25L266.92-8.25 268.67-23.5Q270.47-24.05 272.32-24.05L272.32-24.05Q275.37-24.05 275.37-21.8L275.37-21.8 275.37-21.7Q277.37-24.05 280.47-24.05L280.47-24.05Q282.72-24.05 283.97-23.03 285.22-22 285.22-20.3 285.22-18.6 283.95-17.53 282.67-16.45 280.62-16.45L280.62-16.45Q280.52-16.45 280.42-16.45L280.42-16.45Q280.52-17 280.52-17.5ZM277.42-7.8Q277.42-10.7 274.42-13.6L274.42-13.6Q273.52-6.4 273.52-6.35L273.52-6.35Q273.52-4.25 275.22-4.25L275.22-4.25Q277.42-4.25 277.42-7.8L277.42-7.8ZM294.97 14.85L294.97 14.85Q292.12 14.85 290.07 13.13 288.02 11.4 288.02 8.1L288.02 8.1Q288.02 4.05 292.12 0.2L292.12 0.2Q289.22-0.05 287.47-1.7 285.72-3.35 285.72-6.35L285.72-6.35Q285.72-7.75 286.07-10.55 286.42-13.35 286.82-16.6 287.22-19.85 287.67-23.5L287.67-23.5Q289.22-24.05 290.52-24.05 291.82-24.05 292.47-23.95 293.12-23.85 293.72-23.2 294.32-22.55 294.32-21.35L294.32-21.35 292.67-8.6Q292.57-7.8 292.57-7.5L292.57-7.5Q292.57-4.55 295.27-4.55L295.27-4.55Q297.72-4.55 299.27-6.85L299.27-6.85Q299.42-8 300.02-13.48 300.62-18.95 301.02-22L301.02-22Q301.47-22.95 302.9-23.5 304.32-24.05 305.22-24.05L305.22-24.05Q306.82-24.05 308.12-23.65L308.12-23.65 305.77-5.2Q311.62-4.15 312.77 2.85L312.77 2.85Q312.57 3.8 310.87 5.85L310.87 5.85Q309.87-0.4 305.37-1.75L305.37-1.75 304.57 4.5Q304.02 9 301.72 11.93 299.42 14.85 294.97 14.85ZM291.92 7.15Q291.92 8.8 292.72 9.6 293.52 10.4 294.85 10.4 296.17 10.4 296.87 9.3 297.57 8.2 297.97 4.9L297.97 4.9 298.62-0.6Q292.07 2.8 291.92 7.15L291.92 7.15ZM330.87-7.95L330.87-7.95Q330.87-4.35 333.92-4.35L333.92-4.35Q334.02-4.35 334.07-4.35L334.07-4.35Q335.47-4.35 336.57-5.85 337.67-7.35 338.22-9.6L338.22-9.6Q339.42-14.2 339.42-17.95L339.42-17.95 338.97-17.95Q336.87-17.95 335.72-18.9L335.72-18.9Q334.52-20 334.52-21.55 334.52-23.1 335.47-24.05L335.47-24.05Q336.62-25.1 338.32-25.1L338.32-25.1Q342.02-25.1 343.32-21.3L343.32-21.3Q346.82-22.15 350.72-23.65L350.72-23.65 350.72-20.8Q347.02-19.4 343.82-18.65L343.82-18.65Q343.87-18.25 343.87-17.5L343.87-17.5Q343.67-7.15 339.02-2.5L339.02-2.5Q336.27 0.25 331.89 0.25 327.52 0.25 325.37-3.45L325.37-3.45Q322.92 0.3 317.87 0.3L317.87 0.3Q314.87 0.3 312.94-1.83 311.02-3.95 311.02-6.85L311.02-6.85Q311.02-7.35 311.07-8.05L311.07-8.05Q312.12-16.75 312.82-23.45L312.82-23.45Q314.62-24.05 315.97-24.05L315.97-24.05Q319.52-24.05 319.52-21.6L319.52-21.6Q319.52-20.65 318.77-15.05L318.77-15.05Q317.82-8 317.82-7.13 317.82-6.25 318.49-5.4 319.17-4.55 320.44-4.55 321.72-4.55 322.72-5.7 323.72-6.85 324.17-8.5L324.17-8.5 325.92-23.45Q327.52-24.05 329.32-24.05L329.32-24.05Q332.57-24.05 332.57-21.6L332.57-21.6Q332.57-20.7 331.87-15.75L331.87-15.75Q330.87-8.75 330.87-7.95ZM337.37-21.55L337.37-21.55Q337.37-20.7 338.82-20.7L338.82-20.7Q338.97-20.7 339.12-20.7L339.12-20.7Q338.77-22.05 338.07-22.05 337.37-22.05 337.37-21.55ZM360.27-5.7L360.27-5.7 361.47-16.75Q361.47-18.1 360.77-19 360.07-19.9 358.52-19.9 356.97-19.9 355.89-18.68 354.82-17.45 354.32-15.45L354.32-15.45Q353.97-12.6 353.27-7.13 352.57-1.65 352.37 0L352.37 0 345.72 0Q349.32-30.65 350.07-37.65L350.07-37.65Q351.12-38.05 352.92-38.05L352.92-38.05Q356.82-38.05 356.82-35.75L356.82-35.75 356.82-35.45Q355.97-27.6 355.02-21.65L355.02-21.65Q357.67-24.05 361.02-24.05 364.37-24.05 366.32-22.35 368.27-20.65 368.27-18.05L368.27-18.05Q368.27-17.35 367.97-15.45L367.97-15.45Q366.82-7.95 366.82-6.65L366.82-6.65Q366.82-4.3 368.37-4.3L368.37-4.3Q369.67-4.3 371.14-6.03 372.62-7.75 373.52-11.35L373.52-11.35Q375.22-9.55 375.57-8.5L375.57-8.5Q372.97 0.2 366.37 0.2L366.37 0.2Q363.27 0.2 361.77-1.7 360.27-3.6 360.27-5.7ZM380.76-11.2Q383.86-11.85 385.39-13.7 386.91-15.55 386.91-17.28 386.91-19 385.99-19.63 385.06-20.25 383.96-20.25L383.96-20.25Q381.61-20.25 379.84-17.63 378.06-15 378.06-11.38 378.06-7.75 379.79-5.98 381.51-4.2 384.06-4.2L384.06-4.2Q387.81-4.2 391.26-6.8 394.71-9.4 396.86-13.6L396.86-13.6Q397.96-12.55 398.86-11L398.86-11Q397.21-7.25 393.01-3.65L393.01-3.65Q390.91-1.9 388.04-0.8 385.16 0.3 382.11 0.3L382.11 0.3Q377.11 0.3 374.21-2.75L374.21-2.75Q371.11-6.05 371.11-11.2 371.11-16.35 374.99-20.2 378.86-24.05 384.26-24.05L384.26-24.05Q388.11-24.05 390.51-22.38 392.91-20.7 392.96-17.85L392.96-17.85Q392.96-14 389.89-11.6 386.81-9.2 381.46-8.25L381.46-8.25 380.76-11.2ZM409.51-17.5L409.51-17.5Q409.51-19.7 407.49-19.7 405.46-19.7 404.26-17.1L404.26-17.1Q409.66-12.85 409.66-7.55L409.66-7.55Q409.66-3.7 407.51-1.7 405.36 0.3 402.11 0.3 398.86 0.3 397.36-1.73 395.86-3.75 395.86-6.85L395.86-6.85Q395.86-7.8 395.91-8.25L395.91-8.25 397.66-23.5Q399.46-24.05 401.31-24.05L401.31-24.05Q404.36-24.05 404.36-21.8L404.36-21.8 404.36-21.7Q406.36-24.05 409.46-24.05L409.46-24.05Q411.71-24.05 412.96-23.03 414.21-22 414.21-20.3 414.21-18.6 412.94-17.53 411.66-16.45 409.61-16.45L409.61-16.45Q409.51-16.45 409.41-16.45L409.41-16.45Q409.51-17 409.51-17.5ZM406.41-7.8Q406.41-10.7 403.41-13.6L403.41-13.6Q402.51-6.4 402.51-6.35L402.51-6.35Q402.51-4.25 404.21-4.25L404.21-4.25Q406.41-4.25 406.41-7.8L406.41-7.8ZM424.66-11.2Q427.76-11.85 429.28-13.7 430.81-15.55 430.81-17.28 430.81-19 429.88-19.63 428.96-20.25 427.86-20.25L427.86-20.25Q425.51-20.25 423.73-17.63 421.96-15 421.96-11.38 421.96-7.75 423.68-5.98 425.41-4.2 427.96-4.2L427.96-4.2Q431.71-4.2 435.16-6.8 438.61-9.4 440.76-13.6L440.76-13.6Q441.86-12.55 442.76-11L442.76-11Q441.11-7.25 436.91-3.65L436.91-3.65Q434.81-1.9 431.93-0.8 429.06 0.3 426.01 0.3L426.01 0.3Q421.01 0.3 418.11-2.75L418.11-2.75Q415.01-6.05 415.01-11.2 415.01-16.35 418.88-20.2 422.76-24.05 428.16-24.05L428.16-24.05Q432.01-24.05 434.41-22.38 436.81-20.7 436.86-17.85L436.86-17.85Q436.86-14 433.78-11.6 430.71-9.2 425.36-8.25L425.36-8.25 424.66-11.2ZM458.25 14.85L458.25 14.85Q455.4 14.85 453.35 13.13 451.3 11.4 451.3 8.1L451.3 8.1Q451.3 4.05 455.4 0.2L455.4 0.2Q452.5-0.05 450.75-1.7 449-3.35 449-6.35L449-6.35Q449-7.75 449.35-10.55 449.7-13.35 450.1-16.6 450.5-19.85 450.95-23.5L450.95-23.5Q452.5-24.05 453.8-24.05 455.1-24.05 455.75-23.95 456.4-23.85 457-23.2 457.6-22.55 457.6-21.35L457.6-21.35 455.95-8.6Q455.85-7.8 455.85-7.5L455.85-7.5Q455.85-4.55 458.55-4.55L458.55-4.55Q461-4.55 462.55-6.85L462.55-6.85Q462.7-8 463.3-13.48 463.9-18.95 464.3-22L464.3-22Q464.75-22.95 466.18-23.5 467.6-24.05 468.5-24.05L468.5-24.05Q470.1-24.05 471.4-23.65L471.4-23.65 469.05-5.2Q474.9-4.15 476.05 2.85L476.05 2.85Q475.85 3.8 474.15 5.85L474.15 5.85Q473.15-0.4 468.65-1.75L468.65-1.75 467.85 4.5Q467.3 9 465 11.93 462.7 14.85 458.25 14.85ZM455.2 7.15Q455.2 8.8 456 9.6 456.8 10.4 458.13 10.4 459.45 10.4 460.15 9.3 460.85 8.2 461.25 4.9L461.25 4.9 461.9-0.6Q455.35 2.8 455.2 7.15L455.2 7.15ZM487.05-24.05L487.05-24.05Q491.65-24.05 494.73-21.1 497.8-18.15 497.8-13.9L497.8-13.9Q497.8-7.45 494.03-3.58 490.25 0.3 484.9 0.3 479.55 0.3 476.43-2.75 473.3-5.8 473.3-10.3L473.3-10.3Q473.3-16.6 477.15-20.3L477.15-20.3Q481.05-24.05 487.05-24.05ZM486.08-20Q483.7-20 482.1-17.3 480.5-14.6 480.35-10.5L480.35-10.5Q480.35-7.6 481.53-5.7 482.7-3.8 485.1-3.8 487.5-3.8 489.13-6.45 490.75-9.1 490.75-12.5 490.75-15.9 489.6-17.9L489.6-17.9Q488.45-20 486.08-20ZM522.25-23.55L522.25-23.55Q520.2-7.35 520.2-6.3L520.2-6.3Q520.2-4.3 521.65-4.3L521.65-4.3Q522.95-4.3 524.47-6.08 526-7.85 526.9-11.4L526.9-11.4Q528.55-9.6 528.9-8.6L528.9-8.6Q527.75-3.75 525.25-1.75 522.75 0.25 520.1 0.25L520.1 0.25Q515.75 0.25 514.25-3.1L514.25-3.1Q511.65 0.25 507.3 0.25L507.3 0.25Q503.7 0.25 501.75-1.55 499.8-3.35 499.8-6.25L499.8-6.25Q499.8-6.95 500.05-8.7L500.05-8.7Q501.2-18 501.8-23.5L501.8-23.5Q503.35-24.05 504.65-24.05 505.95-24.05 506.6-23.95 507.25-23.85 507.85-23.2 508.45-22.55 508.45-21.35L508.45-21.35 506.8-8.6Q506.7-8 506.7-7.5L506.7-7.5Q506.7-4.55 509.4-4.55L509.4-4.55Q511.9-4.55 513.55-7L513.55-7Q513.55-7.55 513.65-8.75L513.65-8.75 515.3-22.05Q515.65-22.9 516.8-23.48 517.95-24.05 519.67-24.05 521.4-24.05 522.25-23.55ZM549.74-24.05L549.74-24.05Q552.49-24.05 554.79-23.15L554.79-23.15Q556.34-24.1 558.04-24.1 559.74-24.1 560.74-23.65L560.74-23.65 558.94-9.55Q562.64-12.4 564.54-14.75L564.54-14.75 565.99-11.7Q563.14-8.7 558.39-5.3L558.39-5.3 557.04 5.15Q556.49 9.85 553.97 12.38 551.44 14.9 547.44 14.9L547.44 14.9Q545.14 14.9 542.94 13.4L542.94 13.4Q540.64 11.8 540.64 8.25L540.64 8.25Q540.64 3.9 544.79 0.3L544.79 0.3Q541.24 0.05 538.69-2.65 536.14-5.35 536.14-9.7L536.14-9.7Q536.14-16.25 539.99-20.15 543.84-24.05 549.74-24.05ZM550.49-20.15L550.49-20.15Q547.29-20.15 545.42-17.73 543.54-15.3 543.19-10.5L543.19-10.5Q543.14-10.05 543.14-9.65L543.14-9.65Q543.14-7.2 544.32-5.75 545.49-4.3 547.34-4.3L547.34-4.3Q550.49-4.3 552.09-8.7L552.09-8.7 553.34-19.55Q551.79-20.15 550.49-20.15ZM544.49 7.5L544.49 7.5Q544.49 8.85 545.27 9.63 546.04 10.4 547.04 10.4L547.04 10.4Q549.84 10.4 550.29 6.85L550.29 6.85 551.14-0.65Q544.49 3.3 544.49 7.5ZM575.99-24.05L575.99-24.05Q580.59-24.05 583.66-21.1 586.74-18.15 586.74-13.9L586.74-13.9Q586.74-7.45 582.97-3.58 579.19 0.3 573.84 0.3 568.49 0.3 565.37-2.75 562.24-5.8 562.24-10.3L562.24-10.3Q562.24-16.6 566.09-20.3L566.09-20.3Q569.99-24.05 575.99-24.05ZM575.01-20Q572.64-20 571.04-17.3 569.44-14.6 569.29-10.5L569.29-10.5Q569.29-7.6 570.47-5.7 571.64-3.8 574.04-3.8 576.44-3.8 578.07-6.45 579.69-9.1 579.69-12.5 579.69-15.9 578.54-17.9L578.54-17.9Q577.39-20 575.01-20Z" opacity="1" transform="matrix(1,0,0,1,0,0)" fill="#ff585f" class="undefined-text-1" data-fill-palette-color="secondary" id="text-1"></path></svg></g></svg></g></svg></g></svg></g><g><svg viewBox="0 0 186.0046874641125 70.54952647817522" height="70.54952647817522" width="186.0046874641125"><g><svg xmlns="http://www.w3.org/2000/svg" xmlns:xlink="http://www.w3.org/1999/xlink" version="1.1" x="0" y="0" viewBox="5.213373184204102 32.17000198364258 89.94461822509766 34.1150016784668" enable-background="new 0 0 100 100" xml:space="preserve" height="70.54952647817522" width="186.0046874641125" class="icon-icon-0" data-fill-palette-color="accent" id="icon-0"><g fill="#ff585f" data-fill-palette-color="accent"><path d="M94.992 52.777c-0.021-0.09-0.084-0.16-0.18-0.217h-2.718c-0.004 0-0.008-0.002-0.012-0.002-0.967-0.037-0.905-2.167-0.823-2.739 0.233-1.639 1.692-1.986 2.125-1.586 0.242 0.223 0.156 1.508-0.145 2.619-0.143 0.526-0.337 1.034 0.47 1.065h0.587c0.514-1.712 1.549-5.881-0.616-9.116-2.214-2.907-8.888-8.793-10.959-9.325-4.188-1.075-19.607-1.306-28.679-1.306-3.403 0-6.909 0.734-6.909 0.734-2.768 0.692-12.276 5.642-16.517 9.468-11.143 1.129-21.594 3.55-23.796 6.854-0.004 0.007-1.135 2.267-1.137 2.275-0.271 0.809-0.394 1.51-0.443 2.186 0.882-0.17 1.756-0.543 2.577-1.029 0.907-0.748 0.722-1.931 1.604-2.974 0.808-0.955 2.454-1.724 3.099-1.582 0.042 0.003 0.085 0.014 0.127 0.035 0.156 0.082 0.217 0.275 0.135 0.433-0.947 1.809-4.108 5.204-7.568 5.776-0.01 1.016 0.103 2.035 0.103 3.338 0 0.104 0.041 0.205 0.113 0.279 0.965 0.992 0.99 1.957 0.991 1.994 0 0.223 0.179 0.402 0.4 0.402 0 0 3.022 0.225 5.482 0.408-0.07-0.426-0.107-0.861-0.107-1.305 0-4.471 3.637-8.107 8.107-8.107s8.107 3.637 8.107 8.107c0 0.525-0.053 1.039-0.148 1.537h41.482c-0.097-0.498-0.149-1.012-0.149-1.537 0-4.471 3.638-8.107 8.108-8.107 4.47 0 8.107 3.637 8.107 8.107 0 0.525-0.052 1.039-0.148 1.537h1.139c0.062 0 0.124-0.014 0.179-0.041l2.193-1.098c0.528-0.012 2.578-0.154 2.578-1.537 0-0.125 0.725 0.021 0.744-0.334C96.12 55.461 94.992 52.777 94.992 52.777zM82.376 42.917c-4.895 0-45.404 1.762-46.393 1.762-0.989 0-1.42-0.698-0.82-1.473 1.031-1.306 9.365-7.475 12.199-8.184 3.872-0.84 16.354-1.253 29.492 0.074 2.277 0.229 4.016 2.025 5.464 3.891C83.858 40.967 84.897 42.917 82.376 42.917z" fill="#ff585f" data-fill-palette-color="accent"></path><circle cx="20.304" cy="59.463" r="3.4" fill="#ff585f" data-fill-palette-color="accent"></circle><path d="M20.304 52.639c-3.769 0-6.823 3.055-6.823 6.824 0 3.768 3.055 6.822 6.823 6.822 3.768 0 6.823-3.055 6.823-6.822C27.127 55.693 24.071 52.639 20.304 52.639zM20.304 63.504c-2.229 0-4.04-1.812-4.04-4.041s1.812-4.041 4.04-4.041c2.228 0 4.041 1.812 4.041 4.041S22.531 63.504 20.304 63.504z" fill="#ff585f" data-fill-palette-color="accent"></path><circle cx="77.716" cy="59.463" r="3.4" fill="#ff585f" data-fill-palette-color="accent"></circle><path d="M77.704 52.639c-3.77 0-6.823 3.055-6.823 6.824 0 3.768 3.054 6.822 6.823 6.822 3.769 0 6.822-3.055 6.822-6.822C84.526 55.693 81.473 52.639 77.704 52.639zM77.716 63.504c-2.227 0-4.039-1.812-4.039-4.041s1.812-4.041 4.039-4.041c2.229 0 4.042 1.812 4.042 4.041S79.945 63.504 77.716 63.504z" fill="#ff585f" data-fill-palette-color="accent"></path></g></svg></g></svg></g></svg></g><defs></defs></svg><rect width="395.52" height="46.88292310617274" fill="none" stroke="none" visibility="hidden"></rect></g></svg></g></svg>